<svg width="20" height="23" viewBox="0 0 20 23" fill="none" xmlns="http://www.w3.org/2000/svg">
<path d="M19 15.5142C19 16.2299 18.6175 16.8912 17.997 17.248L10.997 21.2732C10.3797 21.6281 9.62029 21.6281 9.00302 21.2732L2.00302 17.248C1.38252 16.8911 1 16.2299 1 15.5142V7.48583C1 6.77006 1.38251 6.10885 2.00302 5.75204L9.00302 1.72684C9.62029 1.37189 10.3797 1.37189 10.997 1.72683L17.997 5.75204C18.6175 6.10885 19 6.77006 19 7.48583V15.5142Z" stroke="#8493AD" stroke-width="2"/>
<path d="M13 12.5802C13 12.9415 12.8051 13.2747 12.4903 13.4518L10.4903 14.5768C10.1859 14.7481 9.81414 14.7481 9.50972 14.5768L7.50972 13.4518C7.19485 13.2747 7 12.9415 7 12.5802V10.4198C7 10.0585 7.19485 9.72534 7.50972 9.54822L9.50972 8.42316C9.81414 8.25191 10.1859 8.25191 10.4903 8.42316L12.4903 9.54822C12.8051 9.72534 13 10.0585 13 10.4198V12.5802Z" stroke="#8493AD" stroke-width="2"/>
</svg>
