<svg xmlns="http://www.w3.org/2000/svg" xmlns:xlink="http://www.w3.org/1999/xlink" viewBox="0 0 1080 1080" width="1080" height="1080" preserveAspectRatio="xMidYMid meet" style="width: 100%; height: 100%; transform: translate3d(0px, 0px, 0px); content-visibility: visible;"><defs><clipPath id="__lottie_element_433"><rect width="1080" height="1080" x="0" y="0"/></clipPath></defs><g clip-path="url(/#__lottie_element_433)"><g transform="matrix(19.270000457763672,0,0,19.270000457763672,540,540)" opacity="0.5" style="display: block;"><g opacity="1" transform="matrix(1,0,0,1,0,0)"><path fill="rgb(217,225,239)" fill-opacity="1" d=" M0,-28 C15.46399974822998,-28 28,-15.46399974822998 28,0 C28,15.46399974822998 15.46399974822998,28 0,28 C-15.46399974822998,28 -28,15.46399974822998 -28,0 C-28,-15.46399974822998 -15.46399974822998,-28 0,-28z"/></g></g><g transform="matrix(19.270000457763672,0,0,19.270000457763672,540,539.8458251953125)" opacity="1" style="display: block;"><g opacity="1" transform="matrix(1,0,0,1,0,0)"><path fill="rgb(132,147,173)" fill-opacity="1" d=" M-4.989999771118164,4.168000221252441 C-4.989999771118164,4.168000221252441 -2.6500000953674316,-0.24199999868869781 -2.6500000953674316,-0.24199999868869781 C-2.109999895095825,-1.2719999551773071 -1.2699999809265137,-2.1019999980926514 -0.23999999463558197,-2.6519999504089355 C-0.23999999463558197,-2.6519999504089355 4.170000076293945,-4.992000102996826 4.170000076293945,-4.992000102996826 C4.699999809265137,-5.271999835968018 5.269999980926514,-4.702000141143799 4.989999771118164,-4.171999931335449 C4.989999771118164,-4.171999931335449 2.6500000953674316,0.23800000548362732 2.6500000953674316,0.23800000548362732 C2.109999895095825,1.2680000066757202 1.2699999809265137,2.0980000495910645 0.23999999463558197,2.6480000019073486 C0.23999999463558197,2.6480000019073486 -4.170000076293945,4.98799991607666 -4.170000076293945,4.98799991607666 C-4.690000057220459,5.2779998779296875 -5.269999980926514,4.697999954223633 -4.989999771118164,4.168000221252441z"/></g></g><g transform="matrix(19.270000457763672,0,0,19.270000457763672,540,540)" opacity="1" style="display: block;"><g opacity="1" transform="matrix(1,0,0,1,0,0)"><path stroke-linecap="round" stroke-linejoin="miter" fill-opacity="0" stroke-miterlimit="10" stroke="rgb(132,147,173)" stroke-opacity="1" stroke-width="2" d=" M11,0 C11,6.074999809265137 6.074999809265137,11 0,11 C-6.074999809265137,11 -11,6.074999809265137 -11,0 C-11,-6.074999809265137 -6.074999809265137,-11 0,-11 C6.074999809265137,-11 11,-6.074999809265137 11,0z"/></g></g></g></svg>