<svg width="24" height="24" viewBox="0 0 24 24" fill="none" xmlns="http://www.w3.org/2000/svg">
<g clip-path="url(#clip0_2_5)">
<path d="M16.9577 3.5562C16.9577 1.91986 18.2951 0.593342 19.9449 0.593342C21.5948 0.593342 22.9322 1.91986 22.9322 3.5562C22.9322 5.19253 21.5948 6.51906 19.9449 6.51906C18.2951 6.51906 16.9577 5.19253 16.9577 3.5562Z" fill="#8493AD"/>
<path fill-rule="evenodd" clip-rule="evenodd" d="M3.73729 0.588823C2.08746 0.588823 0.75 1.91534 0.75 3.55168C0.75 5.60799 2.91925 7.04625 4.8186 6.31447L7.39076 8.8656C6.08355 10.7452 6.14261 13.3212 7.53491 15.1408L4.8369 17.8167C2.93527 17.0696 0.75 18.5078 0.75 20.5724C0.75 22.2087 2.08746 23.5352 3.73729 23.5352C6.03315 23.5352 7.458 20.9517 6.29663 19.0434L8.93767 16.424C10.6863 17.5313 12.9904 17.5324 14.7401 16.4268L17.5865 19.2545C16.6305 21.1606 18.0736 23.5352 20.2627 23.5352C21.9126 23.5352 23.25 22.2087 23.25 20.5724C23.25 18.4016 20.8567 16.9703 18.9349 17.9175L16.1441 15.1449C16.8341 14.245 17.2437 13.1222 17.2437 11.9044C17.2437 8.94506 14.8248 6.54606 11.8411 6.54606C10.6837 6.54606 9.6114 6.90698 8.73225 7.52156L6.28699 5.09634C7.46438 3.18861 6.0414 0.588823 3.73729 0.588823ZM11.8411 15.3716C13.7257 15.3716 15.3369 13.7614 15.3369 11.9044C15.3369 9.98954 13.7718 8.43726 11.8411 8.43726C9.91042 8.43726 8.34532 9.98954 8.34532 11.9044C8.34532 13.7738 9.94942 15.3716 11.8411 15.3716Z" fill="#8493AD"/>
</g>
<defs>
<clipPath id="clip0_2_5">
<rect width="24" height="24" fill="white"/>
</clipPath>
</defs>
</svg>
