<svg xmlns="http://www.w3.org/2000/svg" xmlns:xlink="http://www.w3.org/1999/xlink" viewBox="0 0 1080 1080" width="1080" height="1080" preserveAspectRatio="xMidYMid meet" style="width: 100%; height: 100%; transform: translate3d(0px, 0px, 0px); content-visibility: visible;"><defs><clipPath id="__lottie_element_61"><rect width="1080" height="1080" x="0" y="0"/></clipPath><clipPath id="__lottie_element_63"><path d="M0,0 L35,0 L35,35 L0,35z"/></clipPath><g id="__lottie_element_82"><g transform="matrix(1.0000001192092896,0,0,1.0000001192092896,8.267998695373535,8.267879486083984)" opacity="1" style="display: block;"><path fill="rgb(255,0,0)" fill-opacity="1" d=" M9.23,13.46 C11.57,13.46 13.46,11.57 13.46,9.23 C13.46,6.89 11.57,5 9.23,5 C6.9,5 5,6.89 5,9.23 C5,11.57 6.9,13.46 9.23,13.46z"/><g opacity="1" transform="matrix(1,0,0,1,9.232000350952148,9.232999801635742)"><path stroke-linecap="round" stroke-linejoin="miter" fill-opacity="0" stroke-miterlimit="10" stroke="rgb(71,86,118)" stroke-opacity="1" stroke-width="2" d=" M0,4.23199987411499 C2.3380000591278076,4.23199987411499 4.23199987411499,2.3359999656677246 4.23199987411499,-0.0010000000474974513 C4.23199987411499,-2.3380000591278076 2.3380000591278076,-4.23199987411499 0,-4.23199987411499 C-2.3369998931884766,-4.23199987411499 -4.23199987411499,-2.3380000591278076 -4.23199987411499,-0.0010000000474974513 C-4.23199987411499,2.3359999656677246 -2.3369998931884766,4.23199987411499 0,4.23199987411499z"/></g></g></g><clipPath id="__lottie_element_86"><path d="M0,0 L35,0 L35,35 L0,35z"/></clipPath><filter id="__lottie_element_95" filterUnits="objectBoundingBox" x="0%" y="0%" width="100%" height="100%"><feComponentTransfer in="SourceGraphic"><feFuncA type="table" tableValues="1.0 0.0"/></feComponentTransfer></filter><mask id="__lottie_element_82_2" mask-type="alpha"><g filter="url(/#__lottie_element_95)"><rect width="35" height="35" x="0" y="0" fill="#ffffff" opacity="0"/><use xmlns:ns1="http://www.w3.org/1999/xlink" ns1:href="#__lottie_element_82"/></g></mask></defs><g clip-path="url(/#__lottie_element_61)"><g transform="matrix(19.270000457763672,0,0,19.270000457763672,540,540)" opacity="0.5" style="display: block;"><g opacity="1" transform="matrix(1,0,0,1,0,0)"><path fill="rgb(217,225,239)" fill-opacity="1" d=" M0,-28 C15.46399974822998,-28 28,-15.46399974822998 28,0 C28,15.46399974822998 15.46399974822998,28 0,28 C-15.46399974822998,28 -28,15.46399974822998 -28,0 C-28,-15.46399974822998 -15.46399974822998,-28 0,-28z"/></g></g><g clip-path="url(/#__lottie_element_63)" transform="matrix(17.34000015258789,0,0,17.34000015258789,236.54998779296875,236.54998779296875)" opacity="1" style="display: block;"><g transform="matrix(1.0000001192092896,0,0,1.0000001192092896,24.199430465698242,5.958459377288818)" opacity="1" style="display: block;"><g opacity="1" transform="matrix(1,0,0,1,2.365999937057495,2.365999937057495)"><path fill="rgb(132,147,173)" fill-opacity="1" d=" M0,2.115999937057495 C1.1690000295639038,2.115999937057495 2.115999937057495,1.1690000295639038 2.115999937057495,0 C2.115999937057495,-1.1690000295639038 1.1690000295639038,-2.115999937057495 0,-2.115999937057495 C-1.1690000295639038,-2.115999937057495 -2.115999937057495,-1.1690000295639038 -2.115999937057495,0 C-2.115999937057495,1.1690000295639038 -1.1690000295639038,2.115999937057495 0,2.115999937057495z"/></g></g><g transform="matrix(1.0000001192092896,0,0,1.0000001192092896,19.607900619506836,7.39454984664917)" opacity="1" style="display: block;"><g opacity="1" transform="matrix(1,0,0,1,4.061999797821045,4.000999927520752)"><path stroke-linecap="round" stroke-linejoin="miter" fill-opacity="0" stroke-miterlimit="10" stroke="rgb(132,147,173)" stroke-opacity="1" stroke-width="2" d=" M-3.062999963760376,3.000999927520752 C-3.062999963760376,3.000999927520752 3.062999963760376,-3.000999927520752 3.062999963760376,-3.000999927520752"/></g></g><g mask="url(/#__lottie_element_82_2)" style="display: block;"><g clip-path="url(/#__lottie_element_86)" transform="matrix(0.7071068286895752,-0.7071068286895752,0.7071068286895752,0.7071068286895752,-7.248739242553711,17.5)" opacity="1"><g transform="matrix(0.7071067690849304,0.7071067690849304,-0.7071067690849304,0.7071067690849304,4.941999912261963,14.075971603393555)" opacity="1" style="display: block;"><g opacity="1" transform="matrix(1,0,0,1,2.365999937057495,2.365999937057495)"><path fill="rgb(132,147,173)" fill-opacity="1" d=" M0,2.115999937057495 C1.1690000295639038,2.115999937057495 2.115999937057495,1.1690000295639038 2.115999937057495,0 C2.115999937057495,-1.1690000295639038 1.1690000295639038,-2.115999937057495 0,-2.115999937057495 C-1.1690000295639038,-2.115999937057495 -2.115999937057495,-1.1690000295639038 -2.115999937057495,0 C-2.115999937057495,1.1690000295639038 -1.1690000295639038,2.115999937057495 0,2.115999937057495z"/></g></g><g transform="matrix(0.7071067690849304,0.7071067690849304,-0.7071067690849304,0.7071067690849304,9.073346138000488,11.798238754272461)" opacity="1" style="display: block;"><g opacity="1" transform="matrix(1,0,0,1,3.940999984741211,4.0320000648498535)"><path stroke-linecap="round" stroke-linejoin="miter" fill-opacity="0" stroke-miterlimit="10" stroke="rgb(132,147,173)" stroke-opacity="1" stroke-width="2" d=" M2.940999984741211,-3.0320000648498535 C2.940999984741211,-3.0320000648498535 -2.940999984741211,3.0320000648498535 -2.940999984741211,3.0320000648498535"/></g></g></g></g><g transform="matrix(1.0000001192092896,0,0,1.0000001192092896,18.8127498626709,18.571739196777344)" opacity="1" style="display: block;"><g opacity="1" transform="matrix(1,0,0,1,7.116000175476074,7.116000175476074)"><path stroke-linecap="butt" stroke-linejoin="miter" fill-opacity="0" stroke-miterlimit="10" stroke="rgb(132,147,173)" stroke-opacity="1" stroke-width="2" d=" M0,2.115999937057495 C1.1690000295639038,2.115999937057495 2.115999937057495,1.1690000295639038 2.115999937057495,0 C2.115999937057495,-1.1690000295639038 1.1690000295639038,-2.115999937057495 0,-2.115999937057495 C-1.1690000295639038,-2.115999937057495 -2.115999937057495,-1.1690000295639038 -2.115999937057495,0 C-2.115999937057495,1.1690000295639038 -1.1690000295639038,2.115999937057495 0,2.115999937057495z"/></g></g><g transform="matrix(1.0000001192092896,0,0,1.0000001192092896,19.607919692993164,19.505929946899414)" opacity="1" style="display: block;"><g opacity="1" transform="matrix(1,0,0,1,3.125,3.115999937057495)"><path stroke-linecap="butt" stroke-linejoin="miter" fill-opacity="0" stroke-miterlimit="10" stroke="rgb(132,147,173)" stroke-opacity="1" stroke-width="2" d=" M-2.125999927520752,-2.115999937057495 C-2.125999927520752,-2.115999937057495 2.125999927520752,2.115999937057495 2.125999927520752,2.115999937057495"/></g></g><g transform="matrix(1.0000001192092896,0,0,1.0000001192092896,2.202859878540039,2.082960367202759)" opacity="1" style="display: block;"><g opacity="1" transform="matrix(1,0,0,1,7.116000175476074,7.116000175476074)"><path stroke-linecap="butt" stroke-linejoin="miter" fill-opacity="0" stroke-miterlimit="10" stroke="rgb(132,147,173)" stroke-opacity="1" stroke-width="2" d=" M0,2.115999937057495 C1.1690000295639038,2.115999937057495 2.115999937057495,1.1690000295639038 2.115999937057495,0 C2.115999937057495,-1.1690000295639038 1.1690000295639038,-2.115999937057495 0,-2.115999937057495 C-1.1690000295639038,-2.115999937057495 -2.115999937057495,-1.1690000295639038 -2.115999937057495,0 C-2.115999937057495,1.1690000295639038 -1.1690000295639038,2.115999937057495 0,2.115999937057495z"/></g></g><g transform="matrix(1.0000001192092896,0,0,1.0000001192092896,9.388930320739746,9.147659301757812)" opacity="1" style="display: block;"><g opacity="1" transform="matrix(1,0,0,1,3.0460000038146973,3.0290000438690186)"><path stroke-linecap="butt" stroke-linejoin="miter" fill-opacity="0" stroke-miterlimit="10" stroke="rgb(132,147,173)" stroke-opacity="1" stroke-width="2" d=" M2.0460000038146973,2.0290000438690186 C2.0460000038146973,2.0290000438690186 -2.0460000038146973,-2.0290000438690186 -2.0460000038146973,-2.0290000438690186"/></g></g><g transform="matrix(1.0000001192092896,0,0,1.0000001192092896,8.267998695373535,8.267879486083984)" opacity="1" style="display: block;"><g opacity="1" transform="matrix(1,0,0,1,9.232000350952148,9.232999801635742)"><path stroke-linecap="round" stroke-linejoin="miter" fill-opacity="0" stroke-miterlimit="10" stroke="rgb(132,147,173)" stroke-opacity="1" stroke-width="2" d=" M0,4.23199987411499 C2.3380000591278076,4.23199987411499 4.23199987411499,2.3359999656677246 4.23199987411499,-0.0010000000474974513 C4.23199987411499,-2.3380000591278076 2.3380000591278076,-4.23199987411499 0,-4.23199987411499 C-2.3369998931884766,-4.23199987411499 -4.23199987411499,-2.3380000591278076 -4.23199987411499,-0.0010000000474974513 C-4.23199987411499,2.3359999656677246 -2.3369998931884766,4.23199987411499 0,4.23199987411499z"/></g></g></g></g></svg>