<svg width="20" height="24" viewBox="0 0 20 24" fill="none" xmlns="http://www.w3.org/2000/svg">
<path d="M19 10C19 11.516 18.4561 13.0925 17.5693 14.6445C16.6851 16.1918 15.4923 17.6581 14.2759 18.9353C13.0623 20.2096 11.8452 21.2749 10.93 22.0223C10.5637 22.3214 10.2471 22.5686 10 22.7568C9.7529 22.5686 9.43626 22.3214 9.07003 22.0223C8.15484 21.2749 6.93771 20.2096 5.72414 18.9353C4.50774 17.6581 3.31494 16.1918 2.43074 14.6445C1.54392 13.0925 1 11.516 1 10C1 5.02944 5.02944 1 10 1C14.9706 1 19 5.02944 19 10Z" stroke="#8493AD" stroke-width="2"/>
<circle cx="10" cy="10" r="3" stroke="#8493AD" stroke-width="2"/>
</svg>
