<svg width="24" height="24" viewBox="0 0 24 24" fill="none" xmlns="http://www.w3.org/2000/svg">
<path d="M4.89603 9.993C3.94252 9.993 3.11031 9.15227 3.11031 8.03713V4.73398C3.11031 3.58588 2.38666 2.54944 1.29783 2.25052C1.17753 2.21698 1.07031 2.09629 1.07031 1.91587V1.84219C1.07031 1.40855 1.39395 1.11426 1.71317 1.11426H14.2846C15.2381 1.11426 16.0703 1.95498 16.0703 3.07013V8.03713C16.0703 9.15227 15.2381 9.993 14.2846 9.993H4.89603Z" stroke="#8493AD"/>
<path d="M1.15601 2.84576L1.10429 2.83147C0.764566 2.71414 0.5 2.3574 0.5 1.91558V1.8419C0.5 1.06444 1.07506 0.5 1.71429 0.5H14.2857C15.5535 0.5 16.6429 1.61701 16.6429 3.06984V8.0307C16.6429 9.48353 15.5535 10.6005 14.2857 10.6005H4.89714C3.62935 10.6005 2.54 9.48353 2.54 8.0307V4.73369C2.54 3.86656 1.99218 3.07678 1.15601 2.84576ZM16.5 3.06984C16.5 1.81507 15.5379 0.727936 14.2857 0.727936H1.71429C1.09065 0.727936 0.642857 1.2625 0.642857 1.8419V1.91558C0.642857 2.20952 0.824431 2.52764 1.17309 2.61949C2.04405 2.86258 2.68286 3.71758 2.68286 4.73369V8.03684C2.68286 9.29161 3.64494 10.3787 4.89714 10.3787H14.2857C15.5379 10.3787 16.5 9.29161 16.5 8.03684V3.06984Z" fill="#0FC1B7" stroke="#8493AD"/>
<path d="M6.57087 6.14033C6.72867 6.14033 6.85659 6.00289 6.85659 5.83335C6.85659 5.66381 6.72867 5.52637 6.57087 5.52637C6.41307 5.52637 6.28516 5.66381 6.28516 5.83335C6.28516 6.00289 6.41307 6.14033 6.57087 6.14033Z" fill="#8493AD"/>
<path d="M6.57199 4.91211C6.0977 4.91211 5.71484 5.32347 5.71484 5.83306C5.71484 6.34265 6.0977 6.75401 6.57199 6.75401C7.04627 6.75401 7.42913 6.34265 7.42913 5.83306C7.42913 5.32347 7.04627 4.91211 6.57199 4.91211Z" fill="#8493AD"/>
<path d="M9.42634 6.14033C9.58413 6.14033 9.71205 6.00289 9.71205 5.83335C9.71205 5.66381 9.58413 5.52637 9.42634 5.52637C9.26854 5.52637 9.14062 5.66381 9.14062 5.83335C9.14062 6.00289 9.26854 6.14033 9.42634 6.14033Z" fill="#8493AD"/>
<path d="M9.42746 4.91211C8.95317 4.91211 8.57031 5.32347 8.57031 5.83306C8.57031 6.34265 8.95317 6.75401 9.42746 6.75401C9.90174 6.75401 10.2846 6.34265 10.2846 5.83306C10.2846 5.32347 9.90174 4.91211 9.42746 4.91211Z" fill="#8493AD"/>
<path d="M12.2857 6.14033C12.4435 6.14033 12.5714 6.00289 12.5714 5.83335C12.5714 5.66381 12.4435 5.52637 12.2857 5.52637C12.1279 5.52637 12 5.66381 12 5.83335C12 6.00289 12.1279 6.14033 12.2857 6.14033Z" fill="#0FC1B7"/>
<path d="M12.2868 4.91211C11.8125 4.91211 11.4297 5.32347 11.4297 5.83306C11.4297 6.34265 11.8125 6.75401 12.2868 6.75401C12.7611 6.75401 13.144 6.34265 13.144 5.83306C13.144 5.32347 12.7611 4.91211 12.2868 4.91211Z" fill="#8493AD"/>
<path d="M9.7115 22.8804H9.57057C8.67747 22.8025 7.92578 21.9905 7.92578 20.9307V15.9637C7.92578 14.8485 8.75799 14.0078 9.7115 14.0078H19.1001C20.0536 14.0078 20.8858 14.8485 20.8858 15.9637V19.2607C20.8858 20.4089 21.6096 21.4455 22.6986 21.7442C22.8188 21.7779 22.9258 21.8986 22.9258 22.0788V22.1525C22.9258 22.5861 22.6022 22.8804 22.2829 22.8804H9.7115Z" stroke="#8493AD"/>
<path d="M22.8461 21.3807L22.8376 21.378L22.8289 21.3756C21.9561 21.1339 21.3155 20.2779 21.3155 19.2604V15.9634C21.3155 14.7086 20.3534 13.6215 19.1012 13.6215H9.71261C8.46041 13.6215 7.49833 14.7086 7.49833 15.9634V20.9304C7.49833 22.1852 8.46041 23.2723 9.71261 23.2723H22.284C22.9077 23.2723 23.3555 22.7377 23.3555 22.1583V22.0847C23.3555 21.7815 23.1691 21.4828 22.8461 21.3807ZM22.8423 21.1606L22.8946 21.1751C23.236 21.2927 23.4983 21.6454 23.4983 22.0847V22.1583C23.4983 22.9358 22.9233 23.5002 22.284 23.5002H9.71261C8.44482 23.5002 7.35547 22.3832 7.35547 20.9304V15.9634C7.35547 14.5106 8.44482 13.3936 9.71261 13.3936H19.1012C20.3741 13.3936 21.4583 14.5099 21.4583 15.9634V19.2727C21.4583 20.1398 22.0061 20.9296 22.8423 21.1606Z" fill="#0FC1B7" stroke="#8493AD"/>
<path d="M17.4263 18.4743C17.5841 18.4743 17.7121 18.3369 17.7121 18.1673C17.7121 17.9978 17.5841 17.8604 17.4263 17.8604C17.2685 17.8604 17.1406 17.9978 17.1406 18.1673C17.1406 18.3369 17.2685 18.4743 17.4263 18.4743Z" fill="#8493AD"/>
<path d="M17.4275 17.2461C16.9532 17.2461 16.5703 17.6575 16.5703 18.167C16.5703 18.6766 16.9532 19.088 17.4275 19.088C17.9017 19.088 18.2846 18.6766 18.2846 18.167C18.2846 17.6575 17.9017 17.2461 17.4275 17.2461Z" fill="#8493AD"/>
<path d="M14.5709 18.4743C14.7287 18.4743 14.8566 18.3369 14.8566 18.1673C14.8566 17.9978 14.7287 17.8604 14.5709 17.8604C14.4131 17.8604 14.2852 17.9978 14.2852 18.1673C14.2852 18.3369 14.4131 18.4743 14.5709 18.4743Z" fill="#8493AD"/>
<path d="M14.572 17.2461C14.0977 17.2461 13.7148 17.6575 13.7148 18.167C13.7148 18.6766 14.0977 19.088 14.572 19.088C15.0463 19.088 15.4291 18.6766 15.4291 18.167C15.4291 17.6575 15.0463 17.2461 14.572 17.2461Z" fill="#8493AD"/>
<path d="M11.7115 18.4743C11.8693 18.4743 11.9972 18.3369 11.9972 18.1673C11.9972 17.9978 11.8693 17.8604 11.7115 17.8604C11.5537 17.8604 11.4258 17.9978 11.4258 18.1673C11.4258 18.3369 11.5537 18.4743 11.7115 18.4743Z" fill="#8493AD"/>
<path d="M11.7126 17.2461C11.2383 17.2461 10.8555 17.6575 10.8555 18.167C10.8555 18.6766 11.2383 19.088 11.7126 19.088C12.1869 19.088 12.5698 18.6766 12.5698 18.167C12.5698 17.6575 12.1869 17.2461 11.7126 17.2461Z" fill="#8493AD"/>
</svg>
