<svg width="24" height="24" viewBox="0 0 24 24" fill="none" xmlns="http://www.w3.org/2000/svg">
<path d="M21.5768 17.3975L21.5744 17.4017C19.6927 20.7471 16.1129 23 12 23C5.92796 23 1 18.0774 1 12C1 7.88729 3.25283 4.30688 6.59936 2.41896L6.60027 2.41844C8.19473 1.51675 10.0358 1 12 1C18.0777 1 23 5.92229 23 12C23 13.9642 22.4833 15.8043 21.5768 17.3975Z" stroke="#8493AD" stroke-width="2" stroke-miterlimit="10"/>
<path d="M19 22C20.1046 22 21 21.1046 21 20C21 18.8954 20.1046 18 19 18C17.8954 18 17 18.8954 17 20C17 21.1046 17.8954 22 19 22Z" fill="#8493AD"/>
<path d="M15.4186 13.706L15.4162 13.7102C14.6459 15.0796 13.1819 16 11.5 16C9.01596 16 7 13.9861 7 11.5C7 9.81829 7.92032 8.35364 9.29086 7.58046L9.29176 7.57995C9.94373 7.21125 10.696 7 11.5 7C13.9865 7 16 9.01353 16 11.5C16 12.3039 15.7888 13.0553 15.4186 13.706Z" stroke="#8493AD" stroke-width="2" stroke-miterlimit="10"/>
<path d="M14 15L19 20" stroke="#8493AD" stroke-width="2"/>
</svg>
