<svg xmlns="http://www.w3.org/2000/svg" xmlns:xlink="http://www.w3.org/1999/xlink" viewBox="0 0 1080 1080" width="1080" height="1080" preserveAspectRatio="xMidYMid meet" style="width: 100%; height: 100%; transform: translate3d(0px, 0px, 0px); content-visibility: visible;"><defs><clipPath id="__lottie_element_241"><rect width="1080" height="1080" x="0" y="0"/></clipPath><g id="__lottie_element_243"><g transform="matrix(19.270000457763672,0,0,19.270000457763672,541.4837646484375,541.4837646484375)" opacity="1" style="display: block;"><path fill="rgb(131,146,172)" fill-opacity="1" d=" M5.538000106811523,11.07699966430664 C5.538000106811523,11.07699966430664 -5.538000106811523,11.07699966430664 -5.538000106811523,11.07699966430664 C-8.593000411987305,11.07699966430664 -11.07699966430664,8.593000411987305 -11.07699966430664,5.538000106811523 C-11.07699966430664,5.538000106811523 -11.07699966430664,-5.538000106811523 -11.07699966430664,-5.538000106811523 C-11.07699966430664,-8.593000411987305 -8.593000411987305,-11.07699966430664 -5.538000106811523,-11.07699966430664 C-5.538000106811523,-11.07699966430664 5.538000106811523,-11.07699966430664 5.538000106811523,-11.07699966430664 C8.593000411987305,-11.07699966430664 11.07699966430664,-8.593000411987305 11.07699966430664,-5.538000106811523 C11.07699966430664,-5.538000106811523 11.07699966430664,5.538000106811523 11.07699966430664,5.538000106811523 C11.07699966430664,8.593000411987305 8.593000411987305,11.07699966430664 5.538000106811523,11.07699966430664z"/><g opacity="1" transform="matrix(1,0,0,1,0,0)"><path stroke-linecap="butt" stroke-linejoin="miter" fill-opacity="0" stroke-miterlimit="10" stroke="rgb(132,147,173)" stroke-opacity="1" stroke-width="2" d=" M5.538000106811523,11.07699966430664 C5.538000106811523,11.07699966430664 -5.538000106811523,11.07699966430664 -5.538000106811523,11.07699966430664 C-8.593000411987305,11.07699966430664 -11.07699966430664,8.593000411987305 -11.07699966430664,5.538000106811523 C-11.07699966430664,5.538000106811523 -11.07699966430664,-5.538000106811523 -11.07699966430664,-5.538000106811523 C-11.07699966430664,-8.593000411987305 -8.593000411987305,-11.07699966430664 -5.538000106811523,-11.07699966430664 C-5.538000106811523,-11.07699966430664 5.538000106811523,-11.07699966430664 5.538000106811523,-11.07699966430664 C8.593000411987305,-11.07699966430664 11.07699966430664,-8.593000411987305 11.07699966430664,-5.538000106811523 C11.07699966430664,-5.538000106811523 11.07699966430664,5.538000106811523 11.07699966430664,5.538000106811523 C11.07699966430664,8.593000411987305 8.593000411987305,11.07699966430664 5.538000106811523,11.07699966430664z"/></g></g></g><clipPath id="__lottie_element_247"><path d="M0,0 L1080,0 L1080,1080 L0,1080z"/></clipPath><filter id="__lottie_element_268" filterUnits="objectBoundingBox" x="0%" y="0%" width="100%" height="100%"><feComponentTransfer in="SourceGraphic"><feFuncA type="table" tableValues="1.0 0.0"/></feComponentTransfer></filter><mask id="__lottie_element_243_2" mask-type="alpha"><g filter="url(/#__lottie_element_268)"><rect width="1080" height="1080" x="0" y="0" fill="#ffffff" opacity="0"/><use xmlns:ns1="http://www.w3.org/1999/xlink" ns1:href="#__lottie_element_243"/></g></mask></defs><g clip-path="url(/#__lottie_element_241)"><g transform="matrix(19.270000457763672,0,0,19.270000457763672,540,540)" opacity="0.5" style="display: block;"><g opacity="1" transform="matrix(1,0,0,1,0,0)"><path fill="rgb(217,225,239)" fill-opacity="1" d=" M0,-28 C15.46399974822998,-28 28,-15.46399974822998 28,0 C28,15.46399974822998 15.46399974822998,28 0,28 C-15.46399974822998,28 -28,15.46399974822998 -28,0 C-28,-15.46399974822998 -15.46399974822998,-28 0,-28z"/></g></g><g transform="matrix(19.270000457763672,0,0,19.270000457763672,541.4837646484375,541.4837646484375)" opacity="1" style="display: block;"><g opacity="1" transform="matrix(1,0,0,1,0,0)"><path stroke-linecap="butt" stroke-linejoin="miter" fill-opacity="0" stroke-miterlimit="10" stroke="rgb(132,147,173)" stroke-opacity="1" stroke-width="2" d=" M5.538000106811523,11.07699966430664 C5.538000106811523,11.07699966430664 -5.538000106811523,11.07699966430664 -5.538000106811523,11.07699966430664 C-8.593000411987305,11.07699966430664 -11.07699966430664,8.593000411987305 -11.07699966430664,5.538000106811523 C-11.07699966430664,5.538000106811523 -11.07699966430664,-5.538000106811523 -11.07699966430664,-5.538000106811523 C-11.07699966430664,-8.593000411987305 -8.593000411987305,-11.07699966430664 -5.538000106811523,-11.07699966430664 C-5.538000106811523,-11.07699966430664 5.538000106811523,-11.07699966430664 5.538000106811523,-11.07699966430664 C8.593000411987305,-11.07699966430664 11.07699966430664,-8.593000411987305 11.07699966430664,-5.538000106811523 C11.07699966430664,-5.538000106811523 11.07699966430664,5.538000106811523 11.07699966430664,5.538000106811523 C11.07699966430664,8.593000411987305 8.593000411987305,11.07699966430664 5.538000106811523,11.07699966430664z"/></g></g><g transform="matrix(19.270000457763672,0,0,19.270000457763672,648.2010498046875,541.4837646484375)" opacity="1" style="display: block;"><g opacity="1" transform="matrix(1,0,0,1,0,0)"><path stroke-linecap="butt" stroke-linejoin="miter" fill-opacity="0" stroke-miterlimit="10" stroke="rgb(132,147,173)" stroke-opacity="1" stroke-width="2" d=" M-1.8459999561309814,3.691999912261963 C-1.8459999561309814,3.691999912261963 5.538000106811523,3.691999912261963 5.538000106811523,3.691999912261963 C5.538000106811523,3.691999912261963 5.538000106811523,-3.691999912261963 5.538000106811523,-3.691999912261963 C5.538000106811523,-3.691999912261963 -1.8459999561309814,-3.691999912261963 -1.8459999561309814,-3.691999912261963 C-3.885999917984009,-3.691999912261963 -5.538000106811523,-2.0399999618530273 -5.538000106811523,0 C-5.538000106811523,2.0399999618530273 -3.885999917984009,3.691999912261963 -1.8459999561309814,3.691999912261963z"/></g></g><g mask="url(/#__lottie_element_243_2)" style="display: block;"><g clip-path="url(/#__lottie_element_247)" transform="matrix(1.9270000457763672,0,0,1.9270000457763672,-500.58001708984375,-500.58001708984375)" opacity="1"><g style="display: none;"><g><path/><path stroke-linecap="butt" stroke-linejoin="miter" fill-opacity="0" stroke-miterlimit="4"/></g></g><g style="display: none;"><g><path/><path stroke-linecap="butt" stroke-linejoin="miter" fill-opacity="0" stroke-miterlimit="4"/></g></g><g style="display: none;"><g><path/><path stroke-linecap="butt" stroke-linejoin="miter" fill-opacity="0" stroke-miterlimit="4"/></g></g><g style="display: none;"><g><path/><path stroke-linecap="butt" stroke-linejoin="miter" fill-opacity="0" stroke-miterlimit="4"/></g></g><g style="display: none;"><g><path/><path stroke-linecap="butt" stroke-linejoin="miter" fill-opacity="0" stroke-miterlimit="4"/></g></g><g style="display: none;"><g><path/><path stroke-linecap="butt" stroke-linejoin="miter" fill-opacity="0" stroke-miterlimit="4"/></g></g></g></g></g></svg>